<svg xmlns="http://www.w3.org/2000/svg" xmlns:xlink="http://www.w3.org/1999/xlink" width="1080" zoomAndPan="magnify" viewBox="0 0 810 809.999993" height="1080" preserveAspectRatio="xMidYMid meet" version="1.0"><defs><g/><clipPath id="b883d6fde7"><path d="M 613 148 L 736 148 L 736 637 L 613 637 Z M 613 148 " clip-rule="nonzero"/></clipPath><clipPath id="a1a60559fb"><path d="M 945.496094 415.703125 L 676.089844 685.113281 L 405.089844 414.113281 L 674.5 144.707031 Z M 945.496094 415.703125 " clip-rule="nonzero"/></clipPath><clipPath id="a23c3dff52"><path d="M 945.496094 415.703125 L 676.089844 685.113281 L 405.089844 414.113281 L 674.5 144.707031 Z M 945.496094 415.703125 " clip-rule="nonzero"/></clipPath></defs><rect x="-81" width="972" fill="#ffffff" y="-80.999999" height="971.999992" fill-opacity="1"/><rect x="-81" width="972" fill="#ff3131" y="-80.999999" height="971.999992" fill-opacity="1"/><g clip-path="url(#b883d6fde7)"><g clip-path="url(#a1a60559fb)"><g clip-path="url(#a23c3dff52)"><path fill="#ffffff" d="M 626.007812 612.9375 L 626.007812 566.066406 L 723.167969 566.066406 L 723.167969 612.933594 C 723.167969 615.964844 721.972656 618.835938 719.804688 621.003906 C 717.625 623.183594 714.742188 624.382812 711.699219 624.382812 L 637.457031 624.386719 C 634.417969 624.382812 631.546875 623.1875 629.371094 621.011719 C 627.199219 618.839844 626.007812 615.972656 626.007812 612.9375 Z M 626.015625 274.125 L 645.394531 282.261719 L 645.382812 553.800781 L 626.011719 553.800781 Z M 658.1875 201.429688 L 690.984375 201.425781 L 720.882812 261.789062 L 698.085938 271.347656 L 677.648438 259.582031 C 675.753906 258.488281 673.417969 258.5 671.527344 259.582031 L 651.09375 271.359375 L 628.277344 261.78125 Z M 674.585938 168.34375 L 684.910156 189.164062 L 664.261719 189.164062 Z M 691.523438 553.800781 L 657.652344 553.800781 L 657.660156 281.730469 L 674.589844 271.972656 L 691.523438 281.726562 Z M 723.164062 553.800781 L 703.789062 553.800781 L 703.792969 282.257812 L 723.148438 274.136719 Z M 637.453125 636.648438 L 711.707031 636.648438 C 724.351562 636.636719 735.4375 625.558594 735.433594 612.933594 L 735.414062 264.914062 C 735.414062 263.992188 735.207031 263.011719 734.691406 262.023438 C 734.171875 261.039062 680.078125 151.804688 680.078125 151.804688 C 679.5625 150.757812 678.441406 148.605469 674.585938 148.394531 C 671.113281 148.207031 669.394531 151.199219 669.097656 151.804688 C 669.097656 151.804688 614.746094 261.28125 614.394531 262.183594 C 614.039062 263.089844 613.753906 264.074219 613.753906 264.90625 L 613.746094 612.925781 C 613.738281 619.242188 616.207031 625.199219 620.695312 629.6875 C 625.191406 634.179688 631.140625 636.644531 637.453125 636.648438 " fill-opacity="1" fill-rule="nonzero"/></g></g></g><g fill="#ffffff" fill-opacity="1"><g transform="translate(-0.383193, 630.343839)"><g><path d="M 121.609375 0 L 70.71875 0 L 70.71875 -467.859375 L 152.328125 -467.859375 L 294.09375 -71.6875 L 300.8125 -71.6875 L 442.578125 -467.859375 L 521.296875 -467.859375 L 521.296875 0 L 469.140625 0 L 469.140625 -381.78125 L 461.140625 -383.0625 L 322.890625 0 L 268.171875 0 L 129.609375 -383.0625 L 121.609375 -381.78125 Z M 121.609375 0 "/></g></g></g></svg>